<svg width="1440" height="1113" viewBox="0 0 1440 1113" fill="none" xmlns="http://www.w3.org/2000/svg">
<g opacity="0.4" clip-path="url(#clip0_1_688)">
<mask id="mask0_1_688" style="mask-type:alpha" maskUnits="userSpaceOnUse" x="0" y="0" width="1441" height="1113">
<path fill-rule="evenodd" clip-rule="evenodd" d="M1440.4 0.768066H0V1112.51H1440.4V0.768066ZM720.2 936.266C929.6 936.266 1099.35 766.513 1099.35 557.113C1099.35 347.713 929.6 177.96 720.2 177.96C510.8 177.96 341.047 347.713 341.047 557.113C341.047 766.513 510.8 936.266 720.2 936.266Z" fill="#D9D9D9"/>
</mask>
<g mask="url(#mask0_1_688)">
<g clip-path="url(#clip1_1_688)">
<line x1="0.26743" y1="0.768066" x2="0.267382" y2="1112.89" stroke="white" stroke-opacity="0.09" stroke-width="1.201"/>
<line x1="615.182" y1="0.768066" x2="615.182" y2="1112.89" stroke="white" stroke-opacity="0.09" stroke-width="1.201"/>
<line x1="307.725" y1="0.768066" x2="307.725" y2="1112.89" stroke="white" stroke-opacity="0.09" stroke-width="1.201"/>
<line x1="922.635" y1="0.768066" x2="922.635" y2="1112.89" stroke="white" stroke-opacity="0.09" stroke-width="1.201"/>
<line x1="1230.09" y1="0.768066" x2="1230.09" y2="1112.89" stroke="white" stroke-opacity="0.09" stroke-width="1.201"/>
<line x1="153.996" y1="0.768066" x2="153.996" y2="1112.89" stroke="white" stroke-opacity="0.09" stroke-width="1.201"/>
<line x1="768.906" y1="0.768066" x2="768.906" y2="1112.89" stroke="white" stroke-opacity="0.09" stroke-width="1.201"/>
<line x1="461.453" y1="0.768066" x2="461.453" y2="1112.89" stroke="white" stroke-opacity="0.09" stroke-width="1.201"/>
<line x1="1076.36" y1="0.768066" x2="1076.36" y2="1112.89" stroke="white" stroke-opacity="0.09" stroke-width="1.201"/>
<line x1="1383.82" y1="0.768066" x2="1383.82" y2="1112.89" stroke="white" stroke-opacity="0.09" stroke-width="1.201"/>
<line x1="77.134" y1="0.768066" x2="77.134" y2="1112.89" stroke="white" stroke-opacity="0.09" stroke-width="1.201"/>
<line x1="692.044" y1="0.768066" x2="692.044" y2="1112.89" stroke="white" stroke-opacity="0.09" stroke-width="1.201"/>
<line x1="384.587" y1="0.768066" x2="384.587" y2="1112.89" stroke="white" stroke-opacity="0.09" stroke-width="1.201"/>
<line x1="999.501" y1="0.768066" x2="999.501" y2="1112.89" stroke="white" stroke-opacity="0.09" stroke-width="1.201"/>
<line x1="1306.95" y1="0.768066" x2="1306.95" y2="1112.89" stroke="white" stroke-opacity="0.09" stroke-width="1.201"/>
<line x1="230.863" y1="0.768066" x2="230.863" y2="1112.89" stroke="white" stroke-opacity="0.09" stroke-width="1.201"/>
<line x1="845.772" y1="0.768066" x2="845.772" y2="1112.89" stroke="white" stroke-opacity="0.09" stroke-width="1.201"/>
<line x1="538.315" y1="0.768066" x2="538.315" y2="1112.89" stroke="white" stroke-opacity="0.09" stroke-width="1.201"/>
<line x1="1153.23" y1="0.768066" x2="1153.23" y2="1112.89" stroke="white" stroke-opacity="0.09" stroke-width="1.201"/>
</g>
<g clip-path="url(#clip2_1_688)">
<line y1="845.671" x2="1440" y2="845.671" stroke="white" stroke-opacity="0.09" stroke-width="1.201"/>
<line y1="538.215" x2="1440" y2="538.215" stroke="white" stroke-opacity="0.09" stroke-width="1.201"/>
<line y1="230.758" x2="1440" y2="230.758" stroke="white" stroke-opacity="0.09" stroke-width="1.201"/>
<line y1="691.942" x2="1440" y2="691.942" stroke="white" stroke-opacity="0.09" stroke-width="1.201"/>
<line y1="999.397" x2="1440" y2="999.397" stroke="white" stroke-opacity="0.09" stroke-width="1.201"/>
<line y1="384.487" x2="1440" y2="384.487" stroke="white" stroke-opacity="0.09" stroke-width="1.201"/>
<line y1="77.0323" x2="1440" y2="77.0323" stroke="white" stroke-opacity="0.09" stroke-width="1.201"/>
<line y1="768.807" x2="1440" y2="768.807" stroke="white" stroke-opacity="0.09" stroke-width="1.201"/>
<line y1="1076.26" x2="1440" y2="1076.26" stroke="white" stroke-opacity="0.09" stroke-width="1.201"/>
<line y1="461.351" x2="1440" y2="461.351" stroke="white" stroke-opacity="0.09" stroke-width="1.201"/>
<line y1="153.897" x2="1440" y2="153.897" stroke="white" stroke-opacity="0.09" stroke-width="1.201"/>
<line y1="615.078" x2="1440" y2="615.078" stroke="white" stroke-opacity="0.09" stroke-width="1.201"/>
<line y1="922.535" x2="1440" y2="922.535" stroke="white" stroke-opacity="0.09" stroke-width="1.201"/>
<line y1="307.623" x2="1440" y2="307.623" stroke="white" stroke-opacity="0.09" stroke-width="1.201"/>
</g>
</g>
</g>
<defs>
<clipPath id="clip0_1_688">
<rect width="1440" height="1112.13" fill="white" transform="translate(0 0.768066)"/>
</clipPath>
<clipPath id="clip1_1_688">
<rect width="1440" height="1112.12" fill="white" transform="translate(0 0.768066)"/>
</clipPath>
<clipPath id="clip2_1_688">
<rect width="1440" height="1112.13" fill="white" transform="translate(0 0.768066)"/>
</clipPath>
</defs>
</svg>
