<svg width="1440" height="1113" viewBox="0 0 1440 1113" fill="none" xmlns="http://www.w3.org/2000/svg">
<g opacity="0.4" clip-path="url(#clip0_1_418)">
<mask id="mask0_1_418" style="mask-type:alpha" maskUnits="userSpaceOnUse" x="0" y="0" width="1441" height="1112">
<path fill-rule="evenodd" clip-rule="evenodd" d="M1440.4 0H0V1111.74H1440.4V0ZM720.2 935.498C929.6 935.498 1099.35 765.745 1099.35 556.345C1099.35 346.945 929.6 177.192 720.2 177.192C510.8 177.192 341.047 346.945 341.047 556.345C341.047 765.745 510.8 935.498 720.2 935.498Z" fill="#D9D9D9"/>
</mask>
<g mask="url(#mask0_1_418)">
<g clip-path="url(#clip1_1_418)">
<line x1="0.26743" y1="2.62487e-08" x2="0.267382" y2="1112.12" stroke="white" stroke-opacity="0.09" stroke-width="1.201"/>
<line x1="615.182" y1="2.62487e-08" x2="615.182" y2="1112.12" stroke="white" stroke-opacity="0.09" stroke-width="1.201"/>
<line x1="307.725" y1="2.62487e-08" x2="307.725" y2="1112.12" stroke="white" stroke-opacity="0.09" stroke-width="1.201"/>
<line x1="922.635" y1="2.62487e-08" x2="922.635" y2="1112.12" stroke="white" stroke-opacity="0.09" stroke-width="1.201"/>
<line x1="1230.09" y1="2.62487e-08" x2="1230.09" y2="1112.12" stroke="white" stroke-opacity="0.09" stroke-width="1.201"/>
<line x1="153.996" y1="2.62487e-08" x2="153.996" y2="1112.12" stroke="white" stroke-opacity="0.09" stroke-width="1.201"/>
<line x1="768.906" y1="2.62487e-08" x2="768.906" y2="1112.12" stroke="white" stroke-opacity="0.09" stroke-width="1.201"/>
<line x1="461.453" y1="2.62487e-08" x2="461.453" y2="1112.12" stroke="white" stroke-opacity="0.09" stroke-width="1.201"/>
<line x1="1076.36" y1="2.62487e-08" x2="1076.36" y2="1112.12" stroke="white" stroke-opacity="0.09" stroke-width="1.201"/>
<line x1="1383.82" y1="2.62487e-08" x2="1383.82" y2="1112.12" stroke="white" stroke-opacity="0.09" stroke-width="1.201"/>
<line x1="77.134" y1="2.62487e-08" x2="77.134" y2="1112.12" stroke="white" stroke-opacity="0.09" stroke-width="1.201"/>
<line x1="692.044" y1="2.62487e-08" x2="692.044" y2="1112.12" stroke="white" stroke-opacity="0.09" stroke-width="1.201"/>
<line x1="384.587" y1="2.62487e-08" x2="384.587" y2="1112.12" stroke="white" stroke-opacity="0.09" stroke-width="1.201"/>
<line x1="999.501" y1="2.62487e-08" x2="999.501" y2="1112.12" stroke="white" stroke-opacity="0.09" stroke-width="1.201"/>
<line x1="1306.95" y1="2.62487e-08" x2="1306.95" y2="1112.12" stroke="white" stroke-opacity="0.09" stroke-width="1.201"/>
<line x1="230.863" y1="2.62487e-08" x2="230.863" y2="1112.12" stroke="white" stroke-opacity="0.09" stroke-width="1.201"/>
<line x1="845.772" y1="2.62487e-08" x2="845.772" y2="1112.12" stroke="white" stroke-opacity="0.09" stroke-width="1.201"/>
<line x1="538.315" y1="2.62487e-08" x2="538.315" y2="1112.12" stroke="white" stroke-opacity="0.09" stroke-width="1.201"/>
<line x1="1153.23" y1="2.62487e-08" x2="1153.23" y2="1112.12" stroke="white" stroke-opacity="0.09" stroke-width="1.201"/>
</g>
<g clip-path="url(#clip2_1_418)">
<line y1="844.903" x2="1440" y2="844.903" stroke="white" stroke-opacity="0.09" stroke-width="1.201"/>
<line y1="537.447" x2="1440" y2="537.447" stroke="white" stroke-opacity="0.09" stroke-width="1.201"/>
<line y1="229.99" x2="1440" y2="229.99" stroke="white" stroke-opacity="0.09" stroke-width="1.201"/>
<line y1="691.174" x2="1440" y2="691.174" stroke="white" stroke-opacity="0.09" stroke-width="1.201"/>
<line y1="998.629" x2="1440" y2="998.629" stroke="white" stroke-opacity="0.09" stroke-width="1.201"/>
<line y1="383.719" x2="1440" y2="383.719" stroke="white" stroke-opacity="0.09" stroke-width="1.201"/>
<line y1="76.264" x2="1440" y2="76.264" stroke="white" stroke-opacity="0.09" stroke-width="1.201"/>
<line y1="768.038" x2="1440" y2="768.038" stroke="white" stroke-opacity="0.09" stroke-width="1.201"/>
<line y1="1075.49" x2="1440" y2="1075.49" stroke="white" stroke-opacity="0.09" stroke-width="1.201"/>
<line y1="460.583" x2="1440" y2="460.583" stroke="white" stroke-opacity="0.09" stroke-width="1.201"/>
<line y1="153.128" x2="1440" y2="153.128" stroke="white" stroke-opacity="0.09" stroke-width="1.201"/>
<line y1="614.31" x2="1440" y2="614.31" stroke="white" stroke-opacity="0.09" stroke-width="1.201"/>
<line y1="921.767" x2="1440" y2="921.767" stroke="white" stroke-opacity="0.09" stroke-width="1.201"/>
<line y1="306.855" x2="1440" y2="306.855" stroke="white" stroke-opacity="0.09" stroke-width="1.201"/>
</g>
</g>
</g>
<defs>
<clipPath id="clip0_1_418">
<rect width="1440" height="1112.13" fill="white"/>
</clipPath>
<clipPath id="clip1_1_418">
<rect width="1440" height="1112.12" fill="white"/>
</clipPath>
<clipPath id="clip2_1_418">
<rect width="1440" height="1112.13" fill="white"/>
</clipPath>
</defs>
</svg>
