<svg width="20" height="21" viewBox="0 0 20 21" fill="none" xmlns="http://www.w3.org/2000/svg">
<g clip-path="url(#clip0_1_824)">
<path d="M14.2271 0.5H10.8565V14.1232C10.8565 15.7464 9.56018 17.0797 7.94691 17.0797C6.33363 17.0797 5.03726 15.7464 5.03726 14.1232C5.03726 12.529 6.30483 11.2246 7.8605 11.1667V7.74639C4.43229 7.80433 1.66669 10.6159 1.66669 14.1232C1.66669 17.6594 4.4899 20.5 7.97573 20.5C11.4615 20.5 14.2847 17.6304 14.2847 14.1232V7.13767C15.5523 8.06522 17.1079 8.61594 18.75 8.64495V5.22464C16.2149 5.13768 14.2271 3.05072 14.2271 0.5Z" fill="#13252F"/>
</g>
<defs>
<clipPath id="clip0_1_824">
<rect width="20" height="20" fill="white" transform="translate(0 0.5)"/>
</clipPath>
</defs>
</svg>
