<svg width="16" height="15" viewBox="0 0 16 15" fill="none" xmlns="http://www.w3.org/2000/svg">
<g clip-path="url(#clip0_31_12802)">
<path d="M8.25 1.35059C10.2539 1.35059 10.4912 1.35937 11.2793 1.39453C12.0117 1.42676 12.4072 1.5498 12.6709 1.65234C13.0195 1.78711 13.2715 1.95117 13.5322 2.21191C13.7959 2.47559 13.957 2.72461 14.0918 3.07324C14.1943 3.33691 14.3174 3.73535 14.3496 4.46484C14.3848 5.25586 14.3936 5.49316 14.3936 7.49414C14.3936 9.49805 14.3848 9.73535 14.3496 10.5234C14.3174 11.2559 14.1943 11.6514 14.0918 11.915C13.957 12.2637 13.793 12.5156 13.5322 12.7764C13.2686 13.04 13.0195 13.2012 12.6709 13.3359C12.4072 13.4385 12.0088 13.5615 11.2793 13.5938C10.4883 13.6289 10.251 13.6377 8.25 13.6377C6.24609 13.6377 6.00879 13.6289 5.2207 13.5938C4.48828 13.5615 4.09277 13.4385 3.8291 13.3359C3.48047 13.2012 3.22852 13.0371 2.96777 12.7764C2.7041 12.5127 2.54297 12.2637 2.4082 11.915C2.30566 11.6514 2.18262 11.2529 2.15039 10.5234C2.11523 9.73242 2.10645 9.49512 2.10645 7.49414C2.10645 5.49023 2.11523 5.25293 2.15039 4.46484C2.18262 3.73242 2.30566 3.33691 2.4082 3.07324C2.54297 2.72461 2.70703 2.47266 2.96777 2.21191C3.23145 1.94824 3.48047 1.78711 3.8291 1.65234C4.09277 1.5498 4.49121 1.42676 5.2207 1.39453C6.00879 1.35937 6.24609 1.35059 8.25 1.35059ZM8.25 0C6.21387 0 5.95898 0.00878906 5.15918 0.0439453C4.3623 0.0791016 3.81445 0.208008 3.33984 0.392578C2.84473 0.585937 2.42578 0.84082 2.00977 1.25977C1.59082 1.67578 1.33594 2.09473 1.14258 2.58691C0.958008 3.06445 0.829102 3.60937 0.793945 4.40625C0.758789 5.20898 0.75 5.46387 0.75 7.5C0.75 9.53613 0.758789 9.79102 0.793945 10.5908C0.829102 11.3877 0.958008 11.9355 1.14258 12.4102C1.33594 12.9053 1.59082 13.3242 2.00977 13.7402C2.42578 14.1562 2.84473 14.4141 3.33691 14.6045C3.81445 14.7891 4.35938 14.918 5.15625 14.9531C5.95605 14.9883 6.21094 14.9971 8.24707 14.9971C10.2832 14.9971 10.5381 14.9883 11.3379 14.9531C12.1348 14.918 12.6826 14.7891 13.1572 14.6045C13.6494 14.4141 14.0684 14.1562 14.4844 13.7402C14.9004 13.3242 15.1582 12.9053 15.3486 12.4131C15.5332 11.9355 15.6621 11.3906 15.6973 10.5938C15.7324 9.79395 15.7412 9.53906 15.7412 7.50293C15.7412 5.4668 15.7324 5.21191 15.6973 4.41211C15.6621 3.61523 15.5332 3.06738 15.3486 2.59277C15.1641 2.09473 14.9092 1.67578 14.4902 1.25977C14.0742 0.84375 13.6553 0.585938 13.1631 0.395508C12.6855 0.210937 12.1406 0.0820313 11.3438 0.046875C10.541 0.00878907 10.2861 0 8.25 0Z" fill="#13252F"/>
<path d="M8.25 3.64746C6.12305 3.64746 4.39746 5.37305 4.39746 7.5C4.39746 9.62695 6.12305 11.3525 8.25 11.3525C10.377 11.3525 12.1025 9.62695 12.1025 7.5C12.1025 5.37305 10.377 3.64746 8.25 3.64746ZM8.25 9.99902C6.87012 9.99902 5.75098 8.87988 5.75098 7.5C5.75098 6.12012 6.87012 5.00098 8.25 5.00098C9.62988 5.00098 10.749 6.12012 10.749 7.5C10.749 8.87988 9.62988 9.99902 8.25 9.99902Z" fill="#13252F"/>
<path d="M13.1543 3.49512C13.1543 3.99317 12.75 4.39453 12.2549 4.39453C11.7568 4.39453 11.3555 3.99024 11.3555 3.49512C11.3555 2.99707 11.7598 2.5957 12.2549 2.5957C12.75 2.5957 13.1543 3 13.1543 3.49512Z" fill="#13252F"/>
</g>
<defs>
<clipPath id="clip0_31_12802">
<rect width="15" height="15" fill="white" transform="translate(0.75)"/>
</clipPath>
</defs>
</svg>
