<svg width="99" height="25" viewBox="0 0 99 25" fill="none" xmlns="http://www.w3.org/2000/svg">
<path d="M9.44 24.6437C8.13867 24.6437 6.976 24.505 5.952 24.2277C4.928 23.9717 4.04267 23.5877 3.296 23.0757C2.54933 22.5637 1.93067 21.945 1.44 21.2197C0.949333 20.4944 0.586667 19.6837 0.352 18.7877C0.117333 17.8704 0 16.889 0 15.8437V3.07569H5.184V15.6517C5.184 16.697 5.344 17.5504 5.664 18.2117C5.984 18.8517 6.45333 19.321 7.072 19.6197C7.712 19.9184 8.49067 20.0677 9.408 20.0677C10.368 20.0677 11.1573 19.9184 11.776 19.6197C12.416 19.321 12.896 18.8517 13.216 18.2117C13.536 17.5504 13.696 16.697 13.696 15.6517V3.07569H18.848V15.8437C18.848 18.617 18.0693 20.7824 16.512 22.3397C14.9547 23.8757 12.5973 24.6437 9.44 24.6437Z" fill="#13252F"/>
<path d="M29.444 24.6437C28.3133 24.6437 27.2787 24.537 26.34 24.3237C25.4013 24.1104 24.5907 23.801 23.908 23.3957C23.2253 22.9904 22.6707 22.4784 22.244 21.8597C21.8173 21.241 21.5507 20.5264 21.444 19.7157L25.476 18.3717C25.604 18.841 25.8387 19.2784 26.18 19.6837C26.5213 20.0677 26.9907 20.377 27.588 20.6117C28.1853 20.825 28.9 20.9317 29.732 20.9317C30.5427 20.9317 31.1827 20.8144 31.652 20.5797C32.1427 20.345 32.388 19.9824 32.388 19.4917C32.388 19.1717 32.26 18.9157 32.004 18.7237C31.7693 18.5104 31.396 18.329 30.884 18.1797C30.372 18.009 29.7107 17.849 28.9 17.6997C28.0253 17.4864 27.1613 17.2624 26.308 17.0277C25.476 16.793 24.708 16.4837 24.004 16.0997C23.3213 15.6944 22.7667 15.1824 22.34 14.5637C21.9347 13.9237 21.732 13.1344 21.732 12.1957C21.732 11.1077 22.02 10.169 22.596 9.37969C23.172 8.59036 24.004 7.97169 25.092 7.52369C26.2013 7.07569 27.5347 6.85169 29.092 6.85169C30.4573 6.85169 31.684 7.04369 32.772 7.42769C33.86 7.79035 34.7453 8.34502 35.428 9.09169C36.132 9.81702 36.5693 10.7344 36.74 11.8437L32.516 12.9957C32.4733 12.505 32.292 12.0784 31.972 11.7157C31.6733 11.3317 31.2787 11.0437 30.788 10.8517C30.2973 10.6597 29.7213 10.5637 29.06 10.5637C28.2493 10.5637 27.62 10.7024 27.172 10.9797C26.7453 11.2357 26.532 11.5664 26.532 11.9717C26.532 12.313 26.6707 12.601 26.948 12.8357C27.2467 13.049 27.6733 13.2304 28.228 13.3797C28.804 13.529 29.4867 13.6997 30.276 13.8917C31.0867 14.041 31.8973 14.233 32.708 14.4677C33.54 14.7024 34.2867 15.0117 34.948 15.3957C35.6307 15.7584 36.1747 16.249 36.58 16.8677C36.9853 17.4864 37.188 18.2757 37.188 19.2357C37.188 20.345 36.8893 21.305 36.292 22.1157C35.6947 22.9264 34.82 23.5557 33.668 24.0037C32.516 24.4304 31.108 24.6437 29.444 24.6437Z" fill="#13252F"/>
<path d="M42.1538 24.1957L38.0897 7.29969H43.4977L45.5457 20.0677H46.0578L48.5537 7.29969H54.5378L57.0978 20.0677H57.6098L59.6258 7.29969H64.8737L60.8418 24.1957H53.8338L51.6258 11.8117H51.1458L49.0658 24.1957H42.1538Z" fill="#13252F"/>
<path d="M66.9977 24.1957V7.29969H72.1817V24.1957H66.9977ZM69.5898 5.25169C68.6084 5.25169 67.8511 5.04902 67.3177 4.64369C66.8057 4.21702 66.5498 3.60902 66.5498 2.81969C66.5498 2.00902 66.8057 1.40102 67.3177 0.995688C67.8511 0.569021 68.6084 5.25169 69.5898 5.25169C70.5924 5.25169 71.3497 0.569021 71.8617 0.995688C72.3951 1.42235 72.6618 2.03035 72.6618 2.81969C72.6618 3.58769 72.3951 4.18502 71.8617 4.61169C71.3497 5.03835 70.5924 5.25169 69.5898 5.25169Z" fill="#13252F"/>
<path d="M77.0605 24.1957V13.7637H74.5325V10.0197L79.3005 10.2757V9.73169C78.3405 9.58236 77.5832 9.30502 77.0285 8.89969C76.4738 8.49436 76.0792 8.01436 75.8445 7.45969C75.6312 6.90502 75.5245 6.33969 75.5245 5.76369C75.5245 4.82502 75.7698 4.01436 76.2605 3.33169C76.7725 2.64902 77.4765 2.12635 78.3725 1.76369C79.2685 1.37969 80.3138 1.18769 81.5085 1.18769C82.5325 1.18769 83.4498 1.31569 84.2605 1.57169C85.0925 1.80635 85.7858 2.12635 86.3405 2.53169L86.0205 7.20369C85.4658 6.81969 84.8685 6.52102 84.2285 6.30769C83.6098 6.07302 83.0125 5.95569 82.4365 5.95569C81.8392 5.95569 81.3272 6.10502 80.9005 6.40369C80.4952 6.70235 80.2925 7.19302 80.2925 7.87569C80.2925 8.36635 80.3992 8.75035 80.6125 9.02769C80.8472 9.30502 81.1458 9.49702 81.5085 9.60369C81.8925 9.71035 82.2978 9.76369 82.7245 9.76369H86.3085V13.7637H82.1165V24.1957H77.0605Z" fill="#13252F"/>
<path d="M95.4662 24.6117C93.4609 24.6117 91.9889 24.089 91.0502 23.0437C90.1116 21.9984 89.6423 20.3344 89.6423 18.0517V11.3317H87.3702L87.4342 7.52369H88.7142C89.5889 7.48102 90.2289 7.28902 90.6342 6.94769C91.0396 6.60635 91.2849 6.05169 91.3702 5.28369L91.6902 3.52369H94.6342V7.29969H98.6663V11.4917H94.6342V17.7637C94.6342 18.5104 94.8156 19.0544 95.1783 19.3957C95.5409 19.737 96.0636 19.9077 96.7462 19.9077C97.1302 19.9077 97.4929 19.865 97.8343 19.7797C98.1969 19.6944 98.4956 19.577 98.7302 19.4277V24.1317C98.0689 24.345 97.4609 24.473 96.9062 24.5157C96.3516 24.5797 95.8716 24.6117 95.4662 24.6117Z" fill="#13252F"/>
<path d="M66.9977 24.1957V7.29969H72.1817V24.1957H66.9977ZM69.5898 5.25169C68.6084 5.25169 67.8511 5.04902 67.3177 4.64369C66.8057 4.21702 66.5498 3.60902 66.5498 2.81969C66.5498 2.00902 66.8057 1.40102 67.3177 0.995688C67.8511 0.569021 68.6084 5.25169 69.5898 5.25169C70.5924 5.25169 71.3497 0.569021 71.8617 0.995688C72.3951 1.42235 72.6618 2.03035 72.6618 2.81969C72.6618 3.58769 72.3951 4.18502 71.8617 4.61169C71.3497 5.03835 70.5924 5.25169 69.5898 5.25169Z" fill="#13252F"/>
<path d="M69.5898 5.25169C68.6084 5.25169 67.8511 5.04902 67.3177 4.64369C66.8057 4.21702 66.5498 3.60902 66.5498 2.81969C66.5498 2.00902 66.8057 1.40102 67.3177 0.995688C67.8511 0.569021 68.6084 0.355568 69.5898 0.355568C70.5924 0.355568 71.3497 0.569021 71.8617 0.995688C72.3951 1.42235 72.6618 2.03035 72.6618 2.81969C72.6618 3.58769 72.3951 4.18502 71.8617 4.61169C71.3497 5.03835 70.5924 5.25169 69.5898 5.25169Z" fill="#13252F"/>
<path d="M69.5898 5.25169C68.6084 5.25169 67.8511 5.04902 67.3177 4.64369C66.8057 4.21702 66.5498 3.60902 66.5498 2.81969C66.5498 2.00902 66.8057 1.40102 67.3177 0.995688C67.8511 0.569021 68.6084 0.355568 69.5898 0.355568C70.5924 0.355568 71.3497 0.569021 71.8617 0.995688C72.3951 1.42235 72.6618 2.03035 72.6618 2.81969C72.6618 3.58769 72.3951 4.18502 71.8617 4.61169C71.3497 5.03835 70.5924 5.25169 69.5898 5.25169Z" fill="#13252F" fill-opacity="0.24"/>
</svg>
