<svg width="22" height="19" viewBox="0 0 22 19" fill="none" xmlns="http://www.w3.org/2000/svg">
<path fill-rule="evenodd" clip-rule="evenodd" d="M13.2134 3.22488C11.2681 4.034 7.38025 5.70866 1.54984 8.24887C0.603071 8.62537 0.107113 8.99369 0.0619636 9.35384C-0.0143399 9.96249 0.747868 10.2022 1.7858 10.5285C1.92699 10.5729 2.07327 10.6189 2.22325 10.6677C3.24441 10.9996 4.61806 11.388 5.33216 11.4034C5.97992 11.4174 6.7029 11.1503 7.50109 10.6022C12.9486 6.925 15.7607 5.06635 15.9372 5.02628C16.0618 4.99801 16.2344 4.96247 16.3513 5.06641C16.4682 5.17035 16.4567 5.3672 16.4444 5.42001C16.3688 5.7419 13.3769 8.52349 11.8286 9.96297C11.3459 10.4117 11.0035 10.73 10.9335 10.8027C10.7767 10.9656 10.6169 11.1196 10.4633 11.2677C9.51463 12.1822 8.8032 12.868 10.5027 13.988C11.3194 14.5262 11.973 14.9712 12.6249 15.4152C13.337 15.9001 14.0472 16.3838 14.966 16.9861C15.2001 17.1396 15.4237 17.299 15.6415 17.4542C16.4701 18.045 17.2146 18.5757 18.1343 18.4911C18.6688 18.4419 19.2208 17.9394 19.5011 16.4406C20.1637 12.8986 21.4661 5.22409 21.767 2.06162C21.7934 1.78455 21.7602 1.42995 21.7336 1.27429C21.707 1.11863 21.6513 0.896848 21.449 0.732668C21.2093 0.538229 20.8394 0.497227 20.674 0.500141C19.9217 0.513393 18.7676 0.914696 13.2134 3.22488Z" fill="#13252F"/>
</svg>
