<svg width="27" height="22" viewBox="0 0 27 22" fill="none" xmlns="http://www.w3.org/2000/svg">
<path fill-rule="evenodd" clip-rule="evenodd" d="M16.256 3.47005C13.9217 4.44099 9.25624 6.45059 2.25975 9.49884C1.12363 9.95064 0.528481 10.3926 0.474301 10.8248C0.382737 11.5552 1.29739 11.8428 2.5429 12.2344C2.71233 12.2877 2.88787 12.3429 3.06784 12.4014C4.29324 12.7997 5.94162 13.2657 6.79854 13.2843C7.57585 13.3011 8.44342 12.9806 9.40125 12.3229C15.9383 7.9102 19.3127 5.67982 19.5246 5.63173C19.674 5.59781 19.8812 5.55516 20.0215 5.67989C20.1618 5.80462 20.148 6.04083 20.1332 6.1042C20.0426 6.49048 16.4522 9.82838 14.5942 11.5558C14.015 12.0943 13.6041 12.4762 13.5201 12.5635C13.332 12.7589 13.1402 12.9437 12.9559 13.1214C11.8175 14.2189 10.9638 15.0418 13.0032 16.3858C13.9832 17.0316 14.7675 17.5657 15.5499 18.0985C16.4043 18.6804 17.2565 19.2607 18.3592 19.9835C18.6401 20.1677 18.9084 20.359 19.1697 20.5453C20.1641 21.2541 21.0575 21.891 22.1611 21.7895C22.8025 21.7304 23.4649 21.1274 23.8013 19.3289C24.5964 15.0785 26.1592 5.86911 26.5204 2.07414C26.552 1.74166 26.5122 1.31614 26.4803 1.12935C26.4483 0.942552 26.3815 0.676412 26.1387 0.479397C25.8512 0.246071 25.4072 0.196868 25.2087 0.200365C24.306 0.216266 22.9211 0.697831 16.256 3.47005Z" fill="#FFD700"/>
</svg>
