<svg width="17" height="15" viewBox="0 0 17 15" fill="none" xmlns="http://www.w3.org/2000/svg">
<path fill-rule="evenodd" clip-rule="evenodd" d="M9.91 2.79366C8.45103 3.4005 5.53514 4.6565 1.16233 6.56165C0.452258 6.84403 0.0802889 7.12027 0.0464269 7.39038C-0.0108007 7.84687 0.560856 8.02662 1.3393 8.2714C1.44519 8.3047 1.55491 8.3392 1.66739 8.37576C2.43326 8.62472 3.4635 8.91597 3.99908 8.92754C4.4849 8.93804 5.02713 8.73775 5.62577 8.32668C9.71141 5.56875 11.8204 4.17476 11.9529 4.14471C12.0463 4.12351 12.1757 4.09685 12.2634 4.17481C12.3511 4.25276 12.3425 4.4004 12.3332 4.44001C12.2766 4.68143 10.0326 6.76762 8.87137 7.84722C8.50935 8.18379 8.25256 8.42252 8.20007 8.47705C8.08247 8.59918 7.96263 8.71472 7.84744 8.82575C7.13593 9.51166 6.60236 10.026 7.87698 10.866C8.48952 11.2696 8.97967 11.6034 9.46866 11.9364C10.0027 12.3001 10.5353 12.6628 11.2245 13.1146C11.4001 13.2297 11.5678 13.3492 11.7311 13.4657C12.3526 13.9087 12.9109 14.3068 13.6007 14.2433C14.0015 14.2064 14.4155 13.8295 14.6258 12.7054C15.1227 10.0489 16.0995 4.29307 16.3252 1.92122C16.345 1.71341 16.3201 1.44746 16.3002 1.33072C16.2802 1.21397 16.2384 1.04764 16.0867 0.924501C15.907 0.778672 15.6295 0.74792 15.5054 0.750106C14.9412 0.760044 14.0757 1.06102 9.91 2.79366Z" fill="#13252F"/>
</svg>
